<?xml version="1.0" standalone="no"?>
<!DOCTYPE svg PUBLIC "-//W3C//DTD SVG 20010904//EN"
 "http://www.w3.org/TR/2001/REC-SVG-20010904/DTD/svg10.dtd">
<svg version="1.0" xmlns="http://www.w3.org/2000/svg"
 width="358.000000pt" height="381.000000pt" viewBox="0 0 358.000000 381.000000"
 preserveAspectRatio="xMidYMid meet">

<g transform="translate(0.000000,381.000000) scale(0.100000,-0.100000)"
fill="#000000" stroke="none">
<path d="M0 3800 c0 -7 603 -10 1790 -10 1187 0 1790 3 1790 10 0 7 -603 10
-1790 10 -1187 0 -1790 -3 -1790 -10z"/>
<path d="M2068 3654 c-5 -4 -8 -28 -8 -53 0 -82 -30 -292 -46 -323 -15 -28
-18 -30 -62 -24 -141 17 -212 18 -310 1 -117 -19 -136 -14 -151 43 -13 48 -41
265 -41 314 0 54 -14 47 -38 -19 -35 -96 -59 -208 -89 -408 -28 -197 -31 -291
-20 -896 2 -115 0 -129 -18 -149 -17 -20 -156 -115 -251 -173 -16 -9 -47 -30
-69 -46 -47 -33 -162 -81 -214 -88 -20 -2 -45 -8 -56 -13 -42 -16 -71 -30 -88
-42 -14 -11 -19 -11 -26 0 -10 16 -44 4 -37 -13 3 -8 -9 -20 -27 -29 -18 -8
-54 -36 -82 -61 -39 -36 -51 -42 -58 -30 -11 21 -43 36 -61 29 -22 -8 -20 -27
5 -50 26 -23 19 -55 -22 -101 -16 -19 -29 -40 -29 -49 0 -8 -7 -17 -15 -20
-17 -7 -21 -34 -5 -34 6 0 10 6 10 14 0 8 7 16 15 19 22 9 3 -33 -45 -98 -23
-31 -43 -69 -45 -85 -4 -32 9 -49 19 -24 3 8 10 13 15 9 6 -3 4 -19 -5 -40
-19 -45 1 -47 22 -2 11 24 14 26 9 7 -23 -104 -18 -157 18 -162 17 -2 22 -10
23 -34 1 -17 -4 -31 -10 -30 -6 0 -11 -3 -11 -9 0 -5 5 -9 12 -7 7 2 13 -2 13
-8 0 -12 31 -47 37 -42 2 1 13 2 25 2 20 0 20 -1 5 -18 -10 -10 -17 -34 -17
-54 0 -35 2 -36 63 -66 4 -2 7 9 7 25 l0 28 20 -25 c11 -14 20 -22 20 -17 0
10 -23 50 -33 58 -5 3 -2 9 6 12 9 3 20 -5 28 -21 23 -44 35 -53 61 -43 l23 9
-29 11 c-34 13 -28 24 14 26 18 1 30 -3 30 -11 0 -7 16 -21 35 -30 25 -11 35
-23 35 -39 0 -28 46 -41 67 -19 14 14 33 19 33 9 0 -10 -29 -63 -37 -67 -5 -3
-3 -3 4 -2 6 2 14 -2 17 -9 3 -9 7 -9 13 -1 4 6 20 13 36 16 22 4 27 2 27 -14
0 -17 2 -18 30 -3 38 20 40 19 40 -11 0 -23 3 -25 29 -19 17 3 32 2 36 -4 3
-6 2 -11 -2 -11 -15 0 -34 -63 -22 -71 7 -4 8 -16 4 -30 -7 -21 -6 -22 8 -11
18 15 37 8 37 -13 0 -7 7 -15 15 -19 8 -3 15 -14 15 -25 0 -17 5 -20 30 -14
23 4 30 2 30 -10 0 -8 6 -18 13 -21 9 -3 8 -8 -5 -18 -11 -9 -14 -19 -8 -28 7
-12 12 -11 28 3 10 9 23 17 28 17 5 0 15 4 23 9 12 8 12 12 -2 26 -21 21 -22
46 -2 39 8 -4 15 -9 15 -13 0 -12 58 -42 64 -32 9 14 55 1 49 -15 -3 -10 2
-14 18 -14 18 0 20 3 10 9 -7 5 -10 14 -6 20 11 18 37 -8 32 -31 -4 -13 0 -18
11 -16 10 2 22 -9 30 -25 11 -24 18 -28 39 -23 38 10 92 -4 98 -25 4 -10 13
-19 21 -19 8 0 14 -9 14 -20 0 -11 5 -20 10 -20 13 0 13 37 0 45 -8 5 -7 11 1
21 10 12 14 12 28 1 24 -21 49 -27 55 -14 2 7 5 -3 5 -20 1 -28 5 -33 26 -33
16 0 25 6 25 15 0 19 9 19 32 -1 15 -14 26 -15 70 -6 53 10 88 1 60 -17 -10
-6 -10 -10 1 -20 10 -7 36 -9 81 -5 49 4 71 2 84 -7 15 -13 15 -11 -2 14 -17
28 -17 29 4 52 12 13 28 21 36 18 8 -3 21 0 29 7 8 7 25 10 36 7 30 -8 82 20
75 39 -7 18 34 36 51 22 8 -7 20 -2 38 16 30 30 35 32 35 12 0 -16 43 -30 48
-16 2 6 9 10 15 10 6 0 25 16 43 35 35 39 63 45 71 15 3 -11 9 -17 14 -14 5 3
7 9 4 14 -3 5 -1 11 5 15 5 3 10 0 10 -8 0 -10 8 -13 25 -9 14 2 23 8 20 12
-2 3 9 6 24 5 19 -1 27 2 24 10 -5 16 23 45 45 45 33 1 52 26 56 73 2 35 10
51 32 71 17 15 37 24 48 22 10 -3 27 0 37 7 15 9 22 7 42 -11 30 -28 34 -28
65 6 19 21 27 39 27 65 -1 48 -12 57 -35 27 -19 -24 -19 -24 -13 -2 3 13 1 22
-6 22 -6 0 -11 11 -11 24 0 13 -6 27 -12 29 -8 4 -7 6 4 6 9 1 24 8 33 17 13
13 19 14 28 5 9 -10 8 -16 -7 -26 -15 -11 -17 -17 -7 -29 6 -8 21 -12 31 -9
11 3 20 0 20 -6 0 -25 31 -23 51 3 16 21 24 24 35 16 16 -14 34 -5 34 19 0 9
7 26 15 37 16 21 15 22 19 -38 1 -23 16 -35 17 -15 1 10 3 22 4 27 1 6 3 21 4
35 1 20 8 27 30 31 17 4 32 13 35 21 3 8 2 11 -4 8 -11 -7 -61 45 -54 57 7 11
44 10 44 -2 0 -11 43 -6 83 9 33 13 34 25 5 45 -21 15 -21 17 -5 29 17 11 16
14 -12 41 l-29 28 29 27 c20 19 26 34 23 48 -5 18 -3 21 16 16 16 -4 23 0 26
14 4 15 14 20 39 19 19 -1 33 4 32 9 -1 6 -5 9 -9 7 -5 -1 -8 5 -8 13 0 8 -9
19 -20 25 -11 6 -23 23 -26 38 -4 15 -19 43 -34 62 -33 43 -54 81 -43 79 21
-3 33 2 33 15 0 22 -19 29 -37 14 -14 -11 -20 -8 -47 27 -17 21 -42 48 -55 60
-80 68 -120 109 -118 119 1 6 -7 11 -18 11 -11 1 -32 9 -47 19 -15 10 -60 26
-101 36 -82 21 -217 78 -217 92 0 5 -4 7 -9 4 -5 -3 -14 1 -21 9 -7 8 -23 15
-36 15 -30 0 -56 27 -49 51 5 16 2 18 -22 13 -33 -6 -88 26 -195 114 -93 77
-104 106 -92 255 5 62 9 216 8 342 -1 190 -6 263 -28 420 -35 254 -114 554
-138 529z m29 -231 c-2 -16 -4 -5 -4 22 0 28 2 40 4 28 2 -13 2 -35 0 -50z
m53 -115 c6 -40 14 -86 17 -103 3 -20 2 -27 -5 -20 -10 10 -32 131 -32 174 0
42 8 19 20 -51z m-693 -101 c-7 -20 -15 -37 -18 -37 -10 0 -19 40 -19 84 l0
39 24 -24 c22 -23 23 -28 13 -62z m590 51 c-3 -8 -6 -5 -6 6 -1 11 2 17 5 13
3 -3 4 -12 1 -19z m-252 -25 c-56 -4 -169 -30 -200 -45 -11 -6 -44 -31 -72
-55 -49 -41 -53 -43 -53 -22 0 41 23 90 45 94 11 2 47 10 80 18 33 8 103 15
155 14 52 0 73 -2 45 -4z m385 -93 c0 -11 -2 -20 -4 -20 -2 0 -6 9 -9 20 -3
11 -1 20 4 20 5 0 9 -9 9 -20z m-161 -79 c70 -47 80 -64 87 -147 3 -38 10 -74
15 -81 13 -15 0 -85 -15 -80 -6 2 -12 14 -14 28 -9 82 -14 109 -22 104 -5 -3
-6 -29 -3 -59 4 -34 2 -56 -6 -60 -7 -5 -11 8 -12 41 -1 26 -3 39 -6 28 -2
-11 -6 -30 -9 -42 -5 -26 -24 -31 -24 -7 0 12 -7 15 -25 12 -18 -4 -26 0 -30
13 -4 11 -12 16 -22 12 -12 -5 -14 -1 -9 24 6 27 -2 58 -32 116 -2 4 6 7 18 7
13 0 18 4 14 11 -3 6 -18 8 -33 5 l-26 -5 25 11 c14 7 26 13 28 14 2 1 -4 17
-14 35 -11 21 -13 34 -6 37 6 2 8 10 5 18 -9 25 57 5 116 -35z m168 -13 c-3
-7 -5 -2 -5 12 0 14 2 19 5 13 2 -7 2 -19 0 -25z m-57 -43 c0 -25 -14 -34 -24
-16 -8 12 3 41 15 41 5 0 9 -11 9 -25z m67 -162 c-3 -10 -5 -2 -5 17 0 19 2
27 5 18 2 -10 2 -26 0 -35z m-40 -70 c-2 -16 -4 -5 -4 22 0 28 2 40 4 28 2
-13 2 -35 0 -50z m-48 -133 c19 -39 32 -73 28 -76 -7 -8 -57 23 -56 34 5 30
-3 44 -20 39 -14 -3 -18 -1 -14 9 3 8 10 14 15 14 6 0 8 11 6 25 -9 43 6 27
41 -45z m100 8 c-1 -35 -5 -90 -9 -123 -6 -51 -7 -43 -9 63 0 75 3 122 9 122
6 0 10 -27 9 -62z m-52 -20 c-3 -7 -5 -2 -5 12 0 14 2 19 5 13 2 -7 2 -19 0
-25z m-812 -46 c3 -19 1 -32 -5 -32 -5 0 -10 17 -10 37 0 43 7 41 15 -5z m75
-7 c-7 -9 -15 -13 -18 -10 -3 2 1 11 8 20 7 9 15 13 18 10 3 -2 -1 -11 -8 -20z
m741 -58 c-5 -14 -8 -28 -5 -31 2 -3 -1 -2 -7 3 -7 6 -9 23 -4 47 5 30 9 35
16 22 6 -10 5 -26 0 -41z m-121 -23 c0 -8 -67 -34 -90 -34 -40 0 -19 19 33 28
28 5 53 10 55 11 1 0 2 -1 2 -5z m-457 -10 c20 -4 37 -11 37 -17 0 -12 -79 -2
-93 12 -13 13 -1 14 56 5z m567 -26 c0 -7 -4 -19 -9 -27 -7 -10 -9 -7 -8 12 2
26 17 39 17 15z m-305 -58 c-5 8 -5 12 0 8 4 -4 9 -21 10 -37 2 -17 11 -42 22
-57 l20 -27 -44 -24 c-24 -12 -45 -23 -46 -23 -1 0 -3 12 -3 28 -1 15 -4 63
-7 107 l-5 80 30 -35 c17 -19 27 -28 23 -20z m324 -12 c0 -13 -7 -52 -14 -88
l-15 -65 5 64 c3 35 5 75 5 87 0 13 5 24 10 24 6 0 10 -10 9 -22z m-105 -113
c-8 -19 -14 -52 -14 -73 0 -90 -18 -141 -72 -207 -45 -55 -58 -65 -85 -65 -20
0 -42 9 -59 25 -18 17 -33 23 -43 19 -27 -13 -72 -8 -89 9 -13 14 -13 17 -1
20 8 2 31 10 52 16 25 8 61 10 105 5 l67 -7 -37 37 c-31 30 -45 36 -80 37 -24
0 -52 5 -63 10 -25 11 171 6 200 -6 18 -7 19 -6 4 9 -8 9 -42 22 -76 28 -46 8
-60 15 -57 27 13 68 13 68 76 95 l61 27 23 -28 c13 -15 23 -22 24 -15 0 6 -4
12 -10 12 -22 0 14 48 44 57 42 13 47 8 30 -32z m-712 -8 c3 -13 1 -32 -3 -43
-5 -13 -8 -7 -8 24 -1 46 4 55 11 19z m835 -64 c-3 -10 -5 -2 -5 17 0 19 2 27
5 18 2 -10 2 -26 0 -35z m-553 14 c13 -20 -7 -39 -31 -30 -8 3 -20 -3 -28 -13
-13 -18 -14 -17 -15 12 0 16 6 36 12 42 17 17 48 11 62 -11z m154 -75 c2 -7
-2 -10 -12 -6 -9 3 -16 11 -16 16 0 13 23 5 28 -10z m499 -45 c33 -30 78 -67
99 -83 22 -16 41 -32 44 -35 3 -3 17 -9 33 -13 15 -3 27 -11 27 -16 0 -14 -59
-12 -74 3 -7 6 -27 24 -43 38 -93 82 -149 134 -156 146 -17 28 13 11 70 -40z
m-967 10 c0 -2 -21 -19 -47 -37 -27 -19 -66 -49 -87 -67 -22 -18 -44 -33 -50
-33 -5 0 -17 -7 -27 -16 -10 -9 -23 -14 -30 -12 -6 2 38 37 100 77 61 40 113
77 116 82 6 8 25 13 25 6z m837 -54 c-3 -10 -5 -4 -5 12 0 17 2 24 5 18 2 -7
2 -21 0 -30z m468 -213 c3 -5 2 -10 -4 -10 -5 0 -13 5 -16 10 -3 6 -2 10 4 10
5 0 13 -4 16 -10z m42 4 c-3 -3 -12 -4 -19 -1 -8 3 -5 6 6 6 11 1 17 -2 13 -5z
m-580 -61 c-3 -10 -5 -4 -5 12 0 17 2 24 5 18 2 -7 2 -21 0 -30z m438 17 c-27
-12 -43 -12 -25 0 8 5 22 9 30 9 10 0 8 -3 -5 -9z m135 -45 c-19 -7 -42 -13
-50 -13 -8 0 1 6 20 13 19 7 42 13 50 13 8 0 -1 -6 -20 -13z m107 -1 c-3 -3
-12 -4 -19 -1 -8 3 -5 6 6 6 11 1 17 -2 13 -5z m-40 -10 c-3 -3 -12 -4 -19 -1
-8 3 -5 6 6 6 11 1 17 -2 13 -5z m113 1 c0 -10 -45 -23 -55 -17 -5 3 1 9 15
13 33 9 40 10 40 4z m-75 -25 c-3 -5 -11 -10 -16 -10 -6 0 -7 5 -4 10 3 6 11
10 16 10 6 0 7 -4 4 -10z m-528 -126 c-3 -3 -12 -4 -19 -1 -8 3 -5 6 6 6 11 1
17 -2 13 -5z m-64 -11 c-13 -2 -33 -2 -45 0 -13 2 -3 4 22 4 25 0 35 -2 23 -4z
m-778 -102 c3 -5 1 -12 -5 -16 -5 -3 -10 1 -10 9 0 18 6 21 15 7z m592 -13
c-3 -8 -6 -5 -6 6 -1 11 2 17 5 13 3 -3 4 -12 1 -19z m109 -44 c-9 -8 -16 -11
-16 -5 0 6 -13 11 -28 11 -16 0 -31 3 -34 6 -10 9 29 42 54 46 31 4 47 -34 24
-58z m27 -54 c124 -24 220 -65 302 -128 66 -51 84 -70 85 -89 0 -21 -25 -15
-51 13 -93 101 -282 195 -329 164 -13 -8 -13 -10 1 -10 37 0 39 -69 4 -104
-31 -31 -63 -41 -130 -41 -88 0 -102 8 -110 62 -3 27 -9 59 -12 72 l-6 24 -13
-24 c-7 -13 -14 -19 -14 -14 0 6 -6 -1 -13 -15 -18 -36 -63 -39 -79 -5 -8 18
-14 22 -20 13 -5 -9 -8 -6 -8 10 0 12 -6 22 -14 22 -9 0 -16 -19 -20 -59 -4
-33 -12 -64 -19 -69 -37 -29 -175 -17 -214 19 -25 25 -31 75 -12 111 10 19 9
20 -17 14 -126 -32 -281 -133 -348 -227 -36 -51 -66 -74 -66 -51 0 18 63 106
108 150 58 59 187 126 288 152 94 24 208 26 285 4 50 -14 58 -20 61 -43 2 -20
8 -26 28 -26 19 0 26 6 28 23 4 29 53 52 132 62 30 4 58 8 62 9 4 0 54 -8 111
-19z m1141 -5 c9 -14 13 -25 8 -25 -5 0 -14 11 -20 25 -6 14 -10 25 -8 25 2 0
11 -11 20 -25z m26 -95 c0 -5 -4 -10 -10 -10 -5 0 -10 5 -10 10 0 6 5 10 10
10 6 0 10 -4 10 -10z m-30 -245 c0 -8 -4 -15 -10 -15 -5 0 -10 7 -10 15 0 8 5
15 10 15 6 0 10 -7 10 -15z m-1998 -17 c22 -12 18 -13 -37 -14 -33 0 -78 -4
-100 -8 -47 -9 -42 0 12 19 48 18 94 18 125 3z m1122 3 c6 -9 -7 -13 -85 -25
-40 -7 -91 -54 -109 -100 -10 -27 -12 -28 -28 -13 -29 26 -103 48 -137 41 -43
-9 -86 -32 -120 -65 -28 -26 -55 -32 -71 -16 -8 7 14 37 27 37 5 0 9 -7 9 -15
0 -8 5 -15 11 -15 7 0 9 11 6 30 -6 25 -1 33 30 57 32 25 45 28 108 28 63 0
76 -3 109 -29 31 -23 40 -26 47 -15 5 8 9 19 9 25 0 15 45 55 53 47 4 -3 7 -1
7 5 0 23 121 44 134 23z m101 -11 l40 -19 -50 6 c-63 6 -75 10 -75 23 0 16 41
11 85 -10z m-1109 -34 c19 -19 34 -41 34 -50 0 -23 16 -20 56 11 53 40 129 44
188 9 25 -14 53 -40 63 -56 9 -17 21 -30 25 -30 4 0 8 -7 8 -15 0 -18 1 -18
-39 -4 -17 6 -31 15 -31 20 0 5 -19 19 -42 31 -60 31 -145 31 -187 0 l-30 -22
-15 27 c-8 16 -26 39 -40 52 -14 14 -26 31 -26 39 0 8 -6 12 -15 8 -8 -3 -15
-1 -15 4 0 21 33 9 66 -24z m-856 4 c0 -5 -4 -10 -10 -10 -5 0 -10 5 -10 10 0
6 5 10 10 10 6 0 10 -4 10 -10z m2070 -27 c0 -20 -3 -24 -11 -16 -7 7 -9 19
-6 27 10 24 17 19 17 -11z m-2112 -25 c-6 -18 -28 -21 -28 -4 0 9 7 16 16 16
9 0 14 -5 12 -12z m2272 -168 c0 -12 -28 -25 -36 -17 -9 9 6 27 22 27 8 0 14
-5 14 -10z m-1930 -4 c0 -2 -7 -9 -15 -16 -12 -10 -15 -10 -15 4 0 9 7 16 15
16 8 0 15 -2 15 -4z m1830 -186 c8 -5 11 -10 5 -10 -5 0 -17 5 -25 10 -8 5
-10 10 -5 10 6 0 17 -5 25 -10z m-1400 -100 c0 -5 -5 -10 -11 -10 -5 0 -7 5
-4 10 3 6 8 10 11 10 2 0 4 -4 4 -10z m943 -67 c-7 -2 -19 -2 -25 0 -7 3 -2 5
12 5 14 0 19 -2 13 -5z"/>
<path d="M3091 1764 c0 -11 3 -14 6 -6 3 7 2 16 -1 19 -3 4 -6 -2 -5 -13z"/>
<path d="M215 1650 c-3 -5 -1 -10 4 -10 6 0 11 5 11 10 0 6 -2 10 -4 10 -3 0
-8 -4 -11 -10z"/>
<path d="M3190 1639 c0 -5 5 -7 10 -4 6 3 10 8 10 11 0 2 -4 4 -10 4 -5 0 -10
-5 -10 -11z"/>
<path d="M186 1551 c-4 -5 -2 -12 3 -15 5 -4 12 -2 15 3 4 5 2 12 -3 15 -5 4
-12 2 -15 -3z"/>
<path d="M165 1420 c3 -5 8 -10 11 -10 2 0 4 5 4 10 0 6 -5 10 -11 10 -5 0 -7
-4 -4 -10z"/>
<path d="M3363 1243 c-18 -7 -16 -30 3 -37 23 -9 29 0 18 23 -5 10 -15 16 -21
14z"/>
<path d="M3360 1120 c0 -5 7 -10 16 -10 8 0 12 5 9 10 -3 6 -10 10 -16 10 -5
0 -9 -4 -9 -10z"/>
<path d="M3040 769 c0 -5 5 -7 10 -4 6 3 10 8 10 11 0 2 -4 4 -10 4 -5 0 -10
-5 -10 -11z"/>
<path d="M2980 750 c0 -5 5 -10 11 -10 5 0 7 5 4 10 -3 6 -8 10 -11 10 -2 0
-4 -4 -4 -10z"/>
<path d="M3046 732 c-3 -6 -1 -14 5 -17 15 -10 25 3 12 16 -7 7 -13 7 -17 1z"/>
<path d="M520 715 c0 -8 2 -15 4 -15 2 0 12 -3 21 -6 15 -6 15 -4 4 15 -16 25
-29 27 -29 6z"/>
<path d="M780 634 c0 -8 5 -12 10 -9 6 4 8 11 5 16 -9 14 -15 11 -15 -7z"/>
<path d="M730 600 c0 -6 7 -10 15 -10 8 0 15 2 15 4 0 2 -7 6 -15 10 -8 3 -15
1 -15 -4z"/>
<path d="M780 550 c0 -5 5 -10 10 -10 6 0 10 5 10 10 0 6 -4 10 -10 10 -5 0
-10 -4 -10 -10z"/>
<path d="M840 510 c0 -5 5 -10 11 -10 5 0 7 5 4 10 -3 6 -8 10 -11 10 -2 0 -4
-4 -4 -10z"/>
<path d="M794 495 c-3 -8 -3 -19 1 -25 11 -18 25 -11 25 15 0 27 -17 34 -26
10z"/>
<path d="M1227 375 c-4 -8 -2 -17 3 -20 6 -4 10 3 10 14 0 25 -6 27 -13 6z"/>
<path d="M2495 381 c-3 -5 -1 -12 5 -16 12 -7 30 2 30 16 0 12 -27 12 -35 0z"/>
<path d="M940 334 c0 -8 5 -12 10 -9 6 3 10 10 10 16 0 5 -4 9 -10 9 -5 0 -10
-7 -10 -16z"/>
<path d="M1363 275 c-3 -9 -3 -18 -1 -21 3 -3 8 4 11 16 6 23 -1 27 -10 5z"/>
<path d="M1690 215 c-18 -22 2 -44 24 -26 10 8 16 9 21 1 8 -14 55 -13 55 1 0
34 -77 52 -100 24z"/>
<path d="M1580 215 c0 -16 22 -45 31 -40 15 10 11 23 -11 35 -11 6 -20 8 -20
5z"/>
<path d="M1630 191 c0 -12 6 -21 16 -21 9 0 14 7 12 17 -5 25 -28 28 -28 4z"/>
</g>
</svg>
